HIERARCHY
ROOT root
{
	OFFSET 0.000000 0.000000 0.000000
	CHANNELS 6 Xposition Yposition Zposition Zrotation Yrotation Xrotation
	JOINT lhip
	{
		OFFSET 0.058581 -0.082280 -0.017664
		CHANNELS 3 Zrotation Yrotation Xrotation
		JOINT lknee
		{
			OFFSET 0.043451 -0.386469 0.008037
			CHANNELS 3 Zrotation Yrotation Xrotation
			JOINT lankle
			{
				OFFSET -0.014790 -0.426874 -0.037428
				CHANNELS 3 Zrotation Yrotation Xrotation
				JOINT ltoe
				{
					OFFSET 0.041054 -0.060286 0.122042
					CHANNELS 3 Zrotation Yrotation Xrotation
					End Site
					{
						OFFSET 0.000000 0.000000 0.000000
					}
				}
			}
		}
	}
	JOINT rhip
	{
		OFFSET -0.060310 -0.090513 -0.013543
		CHANNELS 3 Zrotation Yrotation Xrotation
		JOINT rknee
		{
			OFFSET -0.043257 -0.383688 -0.004843
			CHANNELS 3 Zrotation Yrotation Xrotation
			JOINT rankle
			{
				OFFSET 0.019056 -0.420046 -0.034562
				CHANNELS 3 Zrotation Yrotation Xrotation
				JOINT rtoe
				{
					OFFSET -0.034840 -0.062106 0.130323
					CHANNELS 3 Zrotation Yrotation Xrotation
					End Site
					{
						OFFSET 0.000000 0.000000 0.000000
					}
				}
			}
		}
	}
	JOINT lowerback
	{
		OFFSET 0.004439 0.124404 -0.038385
		CHANNELS 3 Zrotation Yrotation Xrotation
		JOINT upperback
		{
			OFFSET 0.004488 0.137956 0.026820
			CHANNELS 3 Zrotation Yrotation Xrotation
			JOINT chest
			{
				OFFSET -0.002265 0.056032 0.002855
				CHANNELS 3 Zrotation Yrotation Xrotation
				JOINT lowerneck
				{
					OFFSET -0.013390 0.211636 -0.033468
					CHANNELS 3 Zrotation Yrotation Xrotation
					JOINT upperneck
					{
						OFFSET 0.010113 0.088937 0.050410
						CHANNELS 3 Zrotation Yrotation Xrotation
						End Site
						{
							OFFSET 0.000000 0.000000 0.000000
						}
					}
				}
				JOINT lclavicle
				{
					OFFSET 0.071702 0.114000 -0.018898
					CHANNELS 3 Zrotation Yrotation Xrotation
					JOINT lshoulder
					{
						OFFSET 0.122921 0.045205 -0.019046
						CHANNELS 3 Zrotation Yrotation Xrotation
						JOINT lelbow
						{
							OFFSET 0.255332 -0.015649 -0.022946
							CHANNELS 3 Zrotation Yrotation Xrotation
							JOINT lwrist
							{
								OFFSET 0.265709 0.012698 -0.007375
								CHANNELS 3 Zrotation Yrotation Xrotation
								End Site
								{
									OFFSET 0.000000 0.000000 0.000000
								}
							}
						}
					}
				}
				JOINT rclavicle
				{
					OFFSET -0.082954 0.112472 -0.023707
					CHANNELS 3 Zrotation Yrotation Xrotation
					JOINT rshoulder
					{
						OFFSET -0.113228 0.046853 -0.008472
						CHANNELS 3 Zrotation Yrotation Xrotation
						JOINT relbow
						{
							OFFSET -0.260127 -0.014369 -0.031269
							CHANNELS 3 Zrotation Yrotation Xrotation
							JOINT rwrist
							{
								OFFSET -0.269108 0.006794 -0.006027
								CHANNELS 3 Zrotation Yrotation Xrotation
								End Site
								{
									OFFSET 0.000000 0.000000 0.000000
								}
							}
						}
					}
				}
			}
		}
	}
}
MOTION
Frames: 11
Frame Time: 0.033333
-1.779982 0.302152 0.997391 89.841699 0.501571 88.008169 -1.906639 1.942195 2.604820 -0.597574 -7.316165 4.045057 6.544483 11.971481 -13.559730 0.000000 -0.000000 0.000000 -2.403647 -3.156518 -4.746344 0.168510 0.139292 17.761675 2.539679 -8.671856 -15.774244 0.000000 -0.000000 0.000000 -0.022737 0.839239 7.471770 1.395629 -1.004893 -4.744026 0.298494 -2.304917 3.266756 3.338002 -1.440989 -1.460278 -2.168577 -5.801475 10.444652 -27.367362 4.981147 1.365998 -57.345929 -7.291098 9.709152 6.909830 -30.742961 12.584628 -1.211655 0.887141 1.843817 26.870202 -0.900875 -1.888803 55.800561 2.714525 15.464860 -14.047373 27.578595 0.430420 -3.377730 0.070071 1.102509 
-1.780196 0.303406 0.995824 90.517573 0.491283 88.540165 -1.392163 1.573007 1.880265 -1.760045 -7.000782 4.445696 7.021277 11.429010 -13.903703 0.000000 -0.000000 0.000000 -2.627646 -3.082004 -5.413874 0.499779 -0.203233 18.133590 2.692235 -9.206626 -16.117508 0.000000 -0.000000 0.000000 0.482606 0.264109 7.404457 1.203723 -1.240994 -4.690492 -0.177083 -2.193729 2.613817 3.553407 -1.166912 -1.970822 -2.258653 -5.759589 10.536823 -26.804681 5.539103 1.051692 -57.659227 -7.078918 9.897601 6.901648 -30.564951 13.691327 -1.291558 0.540202 0.342114 26.538410 -1.200560 -1.940992 56.503253 2.522570 16.140533 -14.174302 27.482276 1.158907 -3.483531 -0.269598 0.410777 
-1.778802 0.303521 0.994345 90.646586 0.401894 88.572609 -1.353038 1.835012 1.994053 -1.862526 -7.121356 4.282330 6.704531 11.177201 -13.847497 0.000000 -0.000000 0.000000 -2.704317 -3.060768 -5.569362 0.424338 -0.364721 18.466091 2.687806 -9.194930 -16.315977 0.000000 -0.000000 0.000000 0.611088 -0.104680 7.856547 1.001574 -1.198216 -4.667234 -0.337015 -1.991256 1.938992 3.676229 -0.864759 -2.499050 -2.336342 -5.787099 10.749052 -26.536156 5.997285 0.648385 -57.635460 -6.781500 9.790537 6.661698 -30.276454 13.916104 -1.295694 0.304588 0.417642 26.457220 -1.397032 -1.956253 56.898426 2.420953 16.304851 -13.967506 27.191976 1.357528 -3.526315 -0.116687 0.560466 
-1.777093 0.303166 0.991946 90.905534 0.371710 88.379013 -1.134137 2.074069 2.372657 -2.047793 -7.190781 4.025759 6.219725 10.768601 -13.736976 0.000000 -0.000000 0.000000 -2.711757 -3.058093 -5.387817 0.314545 -0.693353 18.663888 2.505825 -9.136292 -16.466164 0.000000 -0.000000 0.000000 0.768895 -0.432944 8.110927 0.839576 -1.231456 -3.673353 -0.485907 -1.700519 1.098195 3.801791 -0.456608 -3.303374 -2.345962 -6.062405 10.684473 -26.105174 6.025000 0.347987 -57.860386 -6.793370 9.659197 6.689048 -29.769105 13.794971 -1.399081 0.067995 0.513148 26.338934 -1.303420 -1.976773 57.415786 2.542149 16.323494 -13.842108 26.729557 1.397940 -3.382947 0.003443 0.545447 
-1.774774 0.301987 0.990427 90.820287 0.340092 88.329248 -0.932724 2.345655 2.729356 -2.232042 -7.218733 3.635538 6.006578 10.631859 -13.557640 0.000000 -0.000000 0.000000 -2.645052 -3.015420 -5.196062 0.232082 -0.677660 18.604436 2.176375 -9.124505 -16.481419 0.000000 -0.000000 0.000000 0.582756 -0.308022 7.211408 0.890879 -1.174129 -2.279524 -0.415641 -1.484477 0.890317 3.751992 -0.339150 -3.392063 -2.225399 -6.360974 10.232298 -25.874679 5.564815 0.641054 -58.122688 -7.053923 9.558702 7.100256 -29.492023 13.301112 -1.504129 0.229645 0.408550 26.335436 -0.956069 -1.723701 57.599809 2.696908 16.116342 -13.992185 26.437934 1.334164 -3.194255 -0.218831 0.341174 
-1.769708 0.300055 0.988998 90.364452 0.217769 88.599851 -0.735945 2.761278 3.236135 -2.473377 -7.261830 2.767610 5.947139 10.686659 -13.346016 0.000000 -0.000000 0.000000 -2.566787 -2.917925 -4.997261 0.176305 -0.229132 18.199992 1.907141 -9.280093 -16.381130 0.000000 -0.000000 0.000000 0.160573 0.036187 5.534249 1.014408 -0.928341 -1.077370 -0.140291 -1.379931 0.826899 3.461855 -0.329892 -2.927974 -2.038567 -6.073617 9.432777 -25.871924 5.377276 1.194396 -58.195655 -6.961330 9.307388 7.376607 -29.343629 13.120883 -1.616392 0.476238 -0.126159 26.146999 -0.764736 -0.838132 57.931335 2.912590 15.790962 -14.039843 26.128355 1.589684 -2.966674 -0.547469 0.020007 
-1.767530 0.299480 0.988186 90.318842 0.213268 88.687113 -0.581018 2.837992 3.412942 -2.564930 -7.260765 2.539976 5.911939 10.698451 -13.299839 0.000000 -0.000000 0.000000 -2.488823 -2.825308 -4.831468 0.193189 -0.127256 17.990939 1.850537 -9.502824 -16.356138 0.000000 -0.000000 0.000000 0.092958 0.153935 5.116515 1.087989 -0.710402 -0.815101 -0.028298 -1.415537 0.728884 3.351672 -0.300535 -2.932292 -2.123365 -5.892852 9.489381 -26.078692 5.380393 1.466730 -57.960221 -6.839889 9.156885 7.404986 -29.129131 12.983483 -1.616137 0.461275 -0.302969 26.232697 -0.605225 -0.376561 57.915433 2.953080 15.673576 -13.958913 25.619428 1.594297 -2.883298 -0.596360 0.072015 
-1.766342 0.298459 0.987080 90.549754 0.291472 88.808445 -0.382996 2.735096 3.327307 -2.628751 -7.249215 2.572600 5.870364 10.579009 -13.314001 0.000000 -0.000000 0.000000 -2.354257 -2.910771 -4.770090 0.183875 -0.294978 17.825187 1.806383 -9.490953 -16.341251 0.000000 -0.000000 0.000000 0.071581 0.271089 4.825144 1.109358 -0.713033 -0.599107 -0.075591 -1.077848 1.061220 3.422119 -0.481847 -3.199497 -1.593576 -6.503209 8.693536 -25.518731 5.175318 1.594297 -58.521326 -7.162247 9.280703 7.554141 -28.826215 12.941827 -1.646836 0.563032 -0.450046 26.192622 -0.763885 -0.729371 58.273168 2.840362 15.616363 -13.795773 25.458815 2.011696 -2.689584 -0.676759 -0.214070 
-1.766822 0.297413 0.986549 91.126137 0.464396 88.944228 -0.117984 2.390410 2.896247 -2.646670 -7.311774 2.958367 5.822504 10.417284 -13.381965 0.000000 -0.000000 0.000000 -2.066146 -2.956184 -4.832852 0.164611 -0.609125 17.695937 1.715722 -9.733584 -16.308258 0.000000 -0.000000 0.000000 0.228546 0.280052 5.086522 1.197643 -0.871006 -0.956690 -0.050237 -1.099801 1.164128 3.444058 -0.410639 -3.645366 -1.531172 -6.490907 8.661982 -25.414970 5.149317 1.601999 -58.691203 -7.185874 9.300974 7.595114 -28.491245 12.914360 -1.766655 0.495700 -0.388647 26.039906 -0.693770 -0.791043 58.630538 2.801386 15.678084 -13.798151 25.121007 2.137162 -2.593412 -0.637716 -0.312040 
-1.766594 0.295948 0.986594 91.596390 0.554395 88.979964 0.071744 2.151744 2.683318 -2.624267 -7.359400 3.240764 5.674668 10.272024 -13.461511 0.000000 -0.000000 0.000000 -1.844056 -3.079341 -4.675750 0.148435 -0.782461 17.456885 1.639676 -9.929927 -16.318304 0.000000 -0.000000 0.000000 0.325185 0.315641 5.395798 1.243987 -1.006223 -1.378029 -0.037423 -1.059024 1.215924 3.444932 -0.435023 -3.992621 -1.556472 -6.588120 8.807859 -25.352124 5.356134 1.476763 -58.662574 -6.943501 9.307435 7.470588 -28.039350 13.118427 -1.816184 0.371578 -0.287589 26.008782 -0.745992 -0.850520 58.818559 2.680161 15.783347 -13.601506 24.907662 2.439752 -2.597250 -0.536046 -0.292378 
-1.765960 0.294656 0.986703 91.702138 0.543308 88.984678 0.134895 2.164963 2.675088 -2.588426 -7.301960 3.304319 5.566811 10.157728 -13.488997 0.000000 -0.000000 0.000000 -1.762080 -3.143046 -4.519672 0.134663 -0.804614 17.259336 1.586026 -9.939484 -16.317071 0.000000 -0.000000 0.000000 0.334466 0.389428 5.472118 1.221098 -0.995689 -1.475563 -0.020382 -1.007610 1.157003 3.399461 -0.411165 -4.007159 -1.533533 -6.560983 8.808813 -25.342504 5.477851 1.533393 -58.603771 -6.729843 9.223597 7.468574 -27.674213 13.168410 -1.842211 0.310593 -0.220698 26.059572 -0.738447 -0.784147 58.883720 2.609771 15.817283 -13.475488 24.912588 2.646230 -2.579689 -0.479384 -0.290859 
